<svg xmlns="http://www.w3.org/2000/svg" viewBox="0 0 32.41 32.41"><defs><style>.cls-1{fill:#888989;}</style></defs><title>github</title><g id="Layer_2" data-name="Layer 2"><g id="Layer_1-2" data-name="Layer 1"><path class="cls-1" d="M16.2,0a16.2,16.2,0,1,0,16.2,16.2A16.2,16.2,0,0,0,16.2,0Zm2.17,19.24A2.25,2.25,0,0,1,19,21c0,1.26,0,2.28,0,2.59a14.71,14.71,0,0,1-4.68,0c0-.22,0-.82,0-1.61-2.63.57-3.18-1.27-3.18-1.27a2.5,2.5,0,0,0-1-1.38c-.86-.59.06-.58.06-.58a2,2,0,0,1,1.45,1,2,2,0,0,0,2.75.78,2,2,0,0,1,.6-1.26c-2.1-.24-4.3-1-4.3-4.67a3.65,3.65,0,0,1,1-2.53,3.4,3.4,0,0,1,.09-2.5s.79-.25,2.6,1a9,9,0,0,1,4.73,0c1.8-1.22,2.59-1,2.59-1a3.39,3.39,0,0,1,.09,2.5,3.65,3.65,0,0,1,1,2.53c0,3.63-2.21,4.43-4.31,4.66Z"/></g></g></svg>