<svg xmlns="http://www.w3.org/2000/svg" viewBox="0 0 32.41 32.41"><defs><style>.cls-1{fill:#888989;}</style></defs><title>tumblr</title><g id="Layer_2" data-name="Layer 2"><g id="Layer_1-2" data-name="Layer 1"><path class="cls-1" d="M16.2,0a16.2,16.2,0,1,0,16.2,16.2A16.2,16.2,0,0,0,16.2,0Zm3.73,15.9H17.09v2.6a5.09,5.09,0,0,0,.06,1.23,1,1,0,0,0,.43.49,1.63,1.63,0,0,0,.85.22A2.31,2.31,0,0,0,19.93,20v1.71a6.37,6.37,0,0,1-1.31.45,5.4,5.4,0,0,1-1.27.14,3.47,3.47,0,0,1-1.22-.19,2.93,2.93,0,0,1-1-.56,2,2,0,0,1-.59-.77,3.27,3.27,0,0,1-.17-1.19v-4H12.83V14a4,4,0,0,0,1.27-.62,3.15,3.15,0,0,0,.76-1,4.34,4.34,0,0,0,.4-1.44h1.83v2.84h2.84V15.9Z"/></g></g></svg>