<svg xmlns="http://www.w3.org/2000/svg" viewBox="0 0 32.41 32.41"><defs><style>.cls-1{fill:#888989;}</style></defs><title>twitter</title><g id="Layer_2" data-name="Layer 2"><g id="Layer_1-2" data-name="Layer 1"><path class="cls-1" d="M16.2,0a16.2,16.2,0,1,0,16.2,16.2A16.2,16.2,0,0,0,16.2,0Zm6.31,13.07c0,.14,0,.28,0,.44A9.58,9.58,0,0,1,7.78,21.58a6.27,6.27,0,0,0,.81,0,6.76,6.76,0,0,0,4.18-1.44,3.4,3.4,0,0,1-3.14-2.35,3,3,0,0,0,.64.06,3.33,3.33,0,0,0,.88-.11,3.38,3.38,0,0,1-2.7-3.31v0a3.32,3.32,0,0,0,1.52.42,3.37,3.37,0,0,1-1-4.5,9.53,9.53,0,0,0,6.94,3.52,3.49,3.49,0,0,1-.08-.77,3.37,3.37,0,0,1,5.83-2.3A6.76,6.76,0,0,0,23.74,10a3.35,3.35,0,0,1-1.48,1.86,7,7,0,0,0,1.94-.53,6.73,6.73,0,0,1-1.69,1.75Z"/></g></g></svg>