<svg xmlns="http://www.w3.org/2000/svg" viewBox="0 0 134.02 157.28"><defs><style>.cls-1,.cls-2{fill:none;stroke:#e1e1e1;stroke-miterlimit:10;}.cls-1{stroke-width:10px;}.cls-3{fill:#5faf7f;}.cls-4{fill:#e1e1e1;}</style></defs><title>25_1</title><g id="Layer_2" data-name="Layer 2"><g id="Layer_1-2" data-name="Layer 1"><circle class="cls-1" cx="67" cy="67" r="62"/><circle class="cls-2" cx="67" cy="67" r="62"/><path class="cls-3" d="M124,70h10c.12-4,.52-34.69-24-55C94.07,1.81,76.38.25,70,0V10a59,59,0,0,1,34,14C124,41.37,124.05,66.22,124,70Z"/><path class="cls-4" d="M59.57,72.25a.73.73,0,0,1-.75.74H52a.88.88,0,0,1-.93-.91c0-3.7,7-5,7-7.82,0-1.25-.74-2.17-2.77-2.17a7.38,7.38,0,0,0-3,.63.87.87,0,0,1-.33.09.66.66,0,0,1-.67-.68.68.68,0,0,1,.38-.65,8.62,8.62,0,0,1,3.89-.89c2.24,0,4,1.42,4,3.56,0,3.61-6,5.31-7,7.36h6.1A.75.75,0,0,1,59.57,72.25Z"/><path class="cls-4" d="M71,69.2c0,2.24-1.47,4-4.8,4a6.8,6.8,0,0,1-3.73-1,.68.68,0,0,1-.35-.63.72.72,0,0,1,.7-.75.82.82,0,0,1,.37.09,5.92,5.92,0,0,0,2.8.74c2.07,0,3.42-.58,3.42-2.47,0-1.44-1-2.35-2.72-2.35a5.21,5.21,0,0,0-2.7.75,1.16,1.16,0,0,1-.61.21,1,1,0,0,1-1.16-1,3.13,3.13,0,0,1,0-.42L63,61.63a.92.92,0,0,1,.93-.88h5.63a.75.75,0,0,1,.75.75.73.73,0,0,1-.75.74H64.51L63.95,66a6.08,6.08,0,0,1,3-.72A3.75,3.75,0,0,1,71,69.2Z"/><path class="cls-4" d="M78.39,63.59c0,1.75-1,3.14-2.82,3.14s-2.82-1.38-2.82-3.14,1-3.14,2.82-3.14S78.39,61.84,78.39,63.59Zm-1.23,0c0-1.12-.56-2-1.59-2s-1.6.88-1.6,2,.56,2,1.6,2S77.16,64.71,77.16,63.59Zm6-2.09L76.09,72.85a.63.63,0,0,1-.53.32.57.57,0,0,1-.49-.88l7.14-11.41a.56.56,0,0,1,.49-.28.53.53,0,0,1,.6.53A.75.75,0,0,1,83.17,61.5Zm2.33,8.66c0,1.75-1,3.14-2.82,3.14s-2.82-1.38-2.82-3.14,1-3.14,2.82-3.14S85.51,68.41,85.51,70.16Zm-1.23,0c0-1.12-.56-2-1.6-2s-1.6.88-1.6,2,.56,2,1.6,2S84.28,71.29,84.28,70.16Z"/><path class="cls-4" d="M38.75,149.28v5.12c0,2.29-1.25,2.88-2.47,2.88a3.21,3.21,0,0,1-1.6-.41.48.48,0,0,1-.26-.44.47.47,0,0,1,.46-.49.52.52,0,0,1,.22,0,2.54,2.54,0,0,0,1.12.26c.72,0,1.45-.26,1.45-1.78v-5.19a.55.55,0,0,1,.54-.55A.56.56,0,0,1,38.75,149.28Z"/><path class="cls-4" d="M47.93,156.68a.52.52,0,0,1-.54.54.55.55,0,0,1-.52-.33L46.1,155H42l-.78,1.87a.54.54,0,0,1-.52.33.52.52,0,0,1-.54-.54.64.64,0,0,1,.06-.24l3.06-7.22a.75.75,0,0,1,.7-.49h.12a.75.75,0,0,1,.7.49l3.06,7.22A.64.64,0,0,1,47.93,156.68ZM45.68,154l-1.62-3.9L42.44,154Z"/><path class="cls-4" d="M51.87,156.13l2.82-7a.57.57,0,0,1,.52-.37.51.51,0,0,1,.54.55.62.62,0,0,1,0,.2l-3,7.18a.81.81,0,0,1-.74.55h-.26a.81.81,0,0,1-.74-.55l-3-7.18a.62.62,0,0,1,0-.2.51.51,0,0,1,.54-.55.57.57,0,0,1,.52.37Z"/><path class="cls-4" d="M63.57,156.68a.52.52,0,0,1-.54.54.55.55,0,0,1-.52-.33L61.73,155H57.65l-.78,1.87a.54.54,0,0,1-.52.33.52.52,0,0,1-.54-.54.65.65,0,0,1,.06-.24l3.06-7.22a.75.75,0,0,1,.7-.49h.12a.75.75,0,0,1,.7.49l3.06,7.22A.66.66,0,0,1,63.57,156.68ZM61.31,154l-1.62-3.9L58.07,154Z"/><path class="cls-4" d="M70.74,154.94c0,1.36-1.21,2.34-3.07,2.34a7.18,7.18,0,0,1-2.86-.58.56.56,0,0,1-.33-.49.49.49,0,0,1,.49-.5.56.56,0,0,1,.23,0,5.74,5.74,0,0,0,2.36.49c1.19,0,2.1-.34,2.1-1.38,0-1.77-5.1-.79-5.1-3.74,0-1.33,1.08-2.46,3.11-2.46a6.9,6.9,0,0,1,2.39.4.47.47,0,0,1,.34.48.49.49,0,0,1-.48.5.56.56,0,0,1-.19,0,5.86,5.86,0,0,0-1.93-.32c-1.21,0-2.13.47-2.13,1.37C65.66,153.12,70.74,151.77,70.74,154.94Z"/><path class="cls-4" d="M79.13,156.1a.46.46,0,0,1-.26.43,5.22,5.22,0,0,1-2.73.74,4.31,4.31,0,0,1,0-8.61,5.22,5.22,0,0,1,2.73.74.47.47,0,0,1,.26.43.46.46,0,0,1-.48.48.5.5,0,0,1-.22,0,4.33,4.33,0,0,0-2.2-.56,3.26,3.26,0,0,0,0,6.52,4.33,4.33,0,0,0,2.2-.56.5.5,0,0,1,.22,0A.46.46,0,0,1,79.13,156.1Z"/><path class="cls-4" d="M87.33,156.68a.54.54,0,0,1-.54.54.51.51,0,0,1-.55-.54v-.36c0-.79,0-2.42-1.86-2.42H81.89v2.78a.55.55,0,0,1-.55.54.54.54,0,0,1-.54-.54v-7.34a.55.55,0,0,1,.54-.55h2.79c2.28,0,3.26,1.06,3.26,2.44a2.24,2.24,0,0,1-1.57,2.17c1.33.35,1.5,2.06,1.5,2.73Zm-1-5.37c0-.89-.53-1.49-2.3-1.49H81.89v3h2.17C85.41,152.87,86.31,152.33,86.31,151.31Z"/><path class="cls-4" d="M90.44,149.28v7.4a.55.55,0,0,1-.55.54.54.54,0,0,1-.54-.54v-7.4a.55.55,0,0,1,.54-.55A.56.56,0,0,1,90.44,149.28Z"/><path class="cls-4" d="M99.24,151.45c0,1.27-.78,2.66-3.2,2.66H93.86v2.57a.55.55,0,0,1-.55.54.54.54,0,0,1-.54-.54v-7.34a.55.55,0,0,1,.54-.55H96C98.46,148.79,99.24,150.18,99.24,151.45Zm-1.09,0c0-.78-.43-1.63-2.22-1.63H93.86v3.26h2.08C97.72,153.08,98.15,152.23,98.15,151.45Z"/><path class="cls-4" d="M106.79,149.3a.5.5,0,0,1-.52.5h-2.44v6.87a.55.55,0,0,1-.55.54.54.54,0,0,1-.54-.54v-6.87H100.3a.49.49,0,0,1-.5-.5.5.5,0,0,1,.5-.52h6A.51.51,0,0,1,106.79,149.3Z"/></g></g></svg>