<svg xmlns="http://www.w3.org/2000/svg" viewBox="0 0 134 158.28"><defs><style>.cls-1,.cls-2{fill:none;stroke-miterlimit:10;stroke-width:10px;}.cls-1{stroke:#e1e1e1;}.cls-2{stroke:#5faf7f;}.cls-3{fill:#e1e1e1;}</style></defs><title>70_1</title><g id="Layer_2" data-name="Layer 2"><g id="Layer_1-2" data-name="Layer 1"><circle class="cls-1" cx="67" cy="67" r="62"/><circle class="cls-2" cx="67" cy="67" r="62"/><path class="cls-3" d="M10,63H0c.27-4.44,2.22-30,24-48A67.24,67.24,0,0,1,64,0V10A59.24,59.24,0,0,0,30,24C12.86,38.8,10.43,58.57,10,63Z"/><path class="cls-3" d="M59.74,62.45l-5,10.19a.86.86,0,0,1-.75.44.76.76,0,0,1-.79-.79.93.93,0,0,1,.1-.42l4.82-9.59H51.78a.75.75,0,0,1-.75-.75.76.76,0,0,1,.75-.77h7.15a.94.94,0,0,1,1,.93A1.85,1.85,0,0,1,59.74,62.45Z"/><path class="cls-3" d="M71.24,66.87c0,3.75-1.61,6.29-4.75,6.29s-4.75-2.54-4.75-6.29,1.6-6.29,4.75-6.29S71.24,63.12,71.24,66.87Zm-1.6,0c0-2.95-1.09-4.8-3.16-4.8s-3.16,1.86-3.16,4.8,1.09,4.82,3.16,4.82S69.64,69.83,69.64,66.87Z"/><path class="cls-3" d="M78.39,63.59c0,1.75-1,3.14-2.82,3.14s-2.82-1.38-2.82-3.14,1-3.14,2.82-3.14S78.39,61.84,78.39,63.59Zm-1.23,0c0-1.12-.56-2-1.6-2s-1.6.88-1.6,2,.56,2,1.6,2S77.16,64.71,77.16,63.59Zm6-2.09L76.09,72.85a.63.63,0,0,1-.53.32.58.58,0,0,1-.58-.58.59.59,0,0,1,.09-.3l7.14-11.41a.56.56,0,0,1,.49-.28.53.53,0,0,1,.6.53A.75.75,0,0,1,83.17,61.5Zm2.33,8.66c0,1.75-1,3.14-2.82,3.14s-2.82-1.38-2.82-3.14,1-3.14,2.82-3.14S85.51,68.41,85.51,70.16Zm-1.23,0c0-1.12-.56-2-1.6-2s-1.6.88-1.6,2,.56,2,1.6,2S84.28,71.29,84.28,70.16Z"/><path class="cls-3" d="M66.15,157.1a.47.47,0,0,1-.26.43,5.23,5.23,0,0,1-2.73.74,4.31,4.31,0,0,1,0-8.61,5.23,5.23,0,0,1,2.73.74.47.47,0,0,1,.26.43.46.46,0,0,1-.48.48.51.51,0,0,1-.22,0,4.33,4.33,0,0,0-2.19-.56,3.26,3.26,0,0,0,0,6.52,4.33,4.33,0,0,0,2.19-.56.51.51,0,0,1,.22,0A.46.46,0,0,1,66.15,157.1Z"/><path class="cls-3" d="M73.53,155.94c0,1.36-1.21,2.34-3.07,2.34a7.17,7.17,0,0,1-2.85-.58.56.56,0,0,1-.34-.49.49.49,0,0,1,.49-.5.55.55,0,0,1,.23,0,5.75,5.75,0,0,0,2.36.49c1.19,0,2.1-.34,2.1-1.38,0-1.77-5.1-.79-5.1-3.74,0-1.33,1.08-2.46,3.11-2.46a6.89,6.89,0,0,1,2.39.4.47.47,0,0,1,.34.48.49.49,0,0,1-.48.5.56.56,0,0,1-.19,0,5.86,5.86,0,0,0-1.93-.32c-1.21,0-2.13.47-2.13,1.37C68.44,154.12,73.53,152.77,73.53,155.94Z"/><path class="cls-3" d="M80.92,155.94c0,1.36-1.21,2.34-3.07,2.34A7.17,7.17,0,0,1,75,157.7a.56.56,0,0,1-.34-.49.49.49,0,0,1,.49-.5.55.55,0,0,1,.23,0,5.75,5.75,0,0,0,2.36.49c1.19,0,2.1-.34,2.1-1.38,0-1.77-5.1-.79-5.1-3.74,0-1.33,1.08-2.46,3.11-2.46a6.89,6.89,0,0,1,2.39.4.47.47,0,0,1,.34.48.49.49,0,0,1-.48.5.57.57,0,0,1-.19,0,5.85,5.85,0,0,0-1.93-.32c-1.21,0-2.13.47-2.13,1.37C75.83,154.12,80.92,152.77,80.92,155.94Z"/></g></g></svg>