<svg xmlns="http://www.w3.org/2000/svg" viewBox="0 0 134 155.28"><defs><style>.cls-1,.cls-2{fill:none;stroke-miterlimit:10;stroke-width:10px;}.cls-1{stroke:#e1e1e1;}.cls-2{stroke:#5faf7f;}.cls-3{fill:#e1e1e1;}</style></defs><title>90_1</title><g id="Layer_2" data-name="Layer 2"><g id="Layer_1-2" data-name="Layer 1"><circle class="cls-1" cx="67" cy="67" r="62"/><circle class="cls-2" cx="67" cy="67" r="62"/><path class="cls-3" d="M30,24l-9-6A63.07,63.07,0,0,1,64,0V10A62.08,62.08,0,0,0,30,24Z"/><path class="cls-3" d="M50.82,64.55a4,4,0,0,1,4.33-4c4.33,0,4.8,3.88,4.8,6.28,0,2.73-1.23,6.31-5.08,6.31a6.31,6.31,0,0,1-3.1-.75.73.73,0,0,1-.37-.63.71.71,0,0,1,.72-.72.82.82,0,0,1,.3.05,5.4,5.4,0,0,0,2.33.51c3,0,3.59-2.91,3.68-4.49a4.32,4.32,0,0,1-3.59,1.54A3.84,3.84,0,0,1,50.82,64.55Zm1.6,0A2.4,2.4,0,0,0,55,67.22a3.52,3.52,0,0,0,3.31-1.93c-.24-1.7-1-3.23-3.21-3.23A2.55,2.55,0,0,0,52.41,64.59Z"/><path class="cls-3" d="M71.24,66.87c0,3.75-1.61,6.29-4.75,6.29s-4.75-2.54-4.75-6.29,1.59-6.29,4.75-6.29S71.24,63.12,71.24,66.87Zm-1.6,0c0-2.95-1.09-4.8-3.16-4.8s-3.16,1.86-3.16,4.8,1.09,4.82,3.16,4.82S69.64,69.83,69.64,66.87Z"/><path class="cls-3" d="M78.39,63.59c0,1.75-1,3.14-2.82,3.14s-2.82-1.38-2.82-3.14,1-3.14,2.82-3.14S78.39,61.84,78.39,63.59Zm-1.23,0c0-1.12-.56-2-1.59-2s-1.6.88-1.6,2,.56,2,1.6,2S77.16,64.71,77.16,63.59Zm6-2.09L76.09,72.85a.63.63,0,0,1-.53.32.57.57,0,0,1-.49-.88l7.14-11.41a.56.56,0,0,1,.49-.28.53.53,0,0,1,.6.53A.75.75,0,0,1,83.17,61.5Zm2.33,8.66c0,1.75-1,3.14-2.82,3.14s-2.82-1.38-2.82-3.14,1-3.14,2.82-3.14S85.51,68.41,85.51,70.16Zm-1.23,0c0-1.12-.56-2-1.6-2s-1.6.88-1.6,2,.56,2,1.6,2S84.28,71.29,84.28,70.16Z"/><path class="cls-3" d="M30.53,147.28v7.4a.55.55,0,0,1-.55.54.54.54,0,0,1-.54-.54v-7.4a.55.55,0,0,1,.54-.55A.56.56,0,0,1,30.53,147.28Z"/><path class="cls-3" d="M38.43,154.62a.55.55,0,0,1-.55.54H33.62a.75.75,0,0,1-.76-.76v-7.12a.55.55,0,0,1,.54-.55.56.56,0,0,1,.55.55v6.79h3.92A.56.56,0,0,1,38.43,154.62Z"/><path class="cls-3" d="M45.34,154.62a.55.55,0,0,1-.55.54H40.53a.75.75,0,0,1-.76-.76v-7.12a.55.55,0,0,1,.54-.55.56.56,0,0,1,.55.55v6.79h3.92A.56.56,0,0,1,45.34,154.62Z"/><path class="cls-3" d="M53.51,147.28V152a3.45,3.45,0,0,1-6.88,0v-4.74a.55.55,0,0,1,.54-.55.56.56,0,0,1,.55.55v4.77a2.35,2.35,0,0,0,4.7,0v-4.77a.55.55,0,0,1,.54-.55A.56.56,0,0,1,53.51,147.28Z"/><path class="cls-3" d="M61.49,152.94c0,1.36-1.21,2.34-3.07,2.34a7.17,7.17,0,0,1-2.85-.58.56.56,0,0,1-.34-.49.49.49,0,0,1,.49-.5.55.55,0,0,1,.23,0,5.75,5.75,0,0,0,2.36.49c1.19,0,2.1-.34,2.1-1.38,0-1.77-5.1-.79-5.1-3.74,0-1.33,1.08-2.46,3.11-2.46a6.89,6.89,0,0,1,2.39.4.47.47,0,0,1,.34.48.49.49,0,0,1-.48.5.56.56,0,0,1-.19,0,5.86,5.86,0,0,0-1.93-.32c-1.21,0-2.13.47-2.13,1.37C56.41,151.12,61.49,149.77,61.49,152.94Z"/><path class="cls-3" d="M68.73,147.3a.5.5,0,0,1-.52.5H65.78v6.87a.55.55,0,0,1-.55.54.54.54,0,0,1-.54-.54v-6.87H62.24a.49.49,0,0,1-.5-.5.5.5,0,0,1,.5-.52h6A.51.51,0,0,1,68.73,147.3Z"/><path class="cls-3" d="M76.59,154.68a.54.54,0,0,1-.54.54.51.51,0,0,1-.55-.54v-.36c0-.79,0-2.42-1.86-2.42H71.15v2.78a.55.55,0,0,1-.55.54.54.54,0,0,1-.54-.54v-7.34a.55.55,0,0,1,.54-.55H73.4c2.28,0,3.26,1.06,3.26,2.44a2.24,2.24,0,0,1-1.57,2.17c1.33.35,1.5,2.06,1.5,2.73Zm-1-5.37c0-.89-.53-1.49-2.3-1.49H71.15v3h2.17C74.67,150.87,75.57,150.33,75.57,149.31Z"/><path class="cls-3" d="M85.5,154.68a.52.52,0,0,1-.54.54.55.55,0,0,1-.52-.33L83.67,153H79.59l-.78,1.87a.54.54,0,0,1-.52.33.52.52,0,0,1-.54-.54.65.65,0,0,1,.06-.24l3.06-7.22a.75.75,0,0,1,.7-.49h.12a.75.75,0,0,1,.7.49l3.06,7.22A.66.66,0,0,1,85.5,154.68ZM83.25,152l-1.62-3.9L80,152Z"/><path class="cls-3" d="M92.22,147.3a.5.5,0,0,1-.52.5H89.27v6.87a.55.55,0,0,1-.55.54.54.54,0,0,1-.54-.54v-6.87H85.73a.49.49,0,0,1-.5-.5.5.5,0,0,1,.5-.52h6A.51.51,0,0,1,92.22,147.3Z"/><path class="cls-3" d="M101.19,151A4.21,4.21,0,1,1,97,146.67,4.07,4.07,0,0,1,101.19,151Zm-1.09,0A3.12,3.12,0,1,0,97,154.26,3,3,0,0,0,100.1,151Z"/><path class="cls-3" d="M109.53,154.68a.54.54,0,0,1-.54.54.51.51,0,0,1-.55-.54v-.36c0-.79,0-2.42-1.86-2.42h-2.48v2.78a.55.55,0,0,1-.55.54.54.54,0,0,1-.54-.54v-7.34a.55.55,0,0,1,.54-.55h2.79c2.28,0,3.26,1.06,3.26,2.44a2.24,2.24,0,0,1-1.57,2.17c1.33.35,1.5,2.06,1.5,2.73Zm-1-5.37c0-.89-.53-1.49-2.3-1.49h-2.11v3h2.17C107.61,150.87,108.51,150.33,108.51,149.31Z"/></g></g></svg>