<svg id="Layer_1" data-name="Layer 1" xmlns="http://www.w3.org/2000/svg" xmlns:xlink="http://www.w3.org/1999/xlink" viewBox="0 0 442.86 441.9"><defs><style>.cls-1,.cls-12,.cls-5{fill:none;}.cls-2{clip-path:url(#clip-path);}.cls-3{fill:#309293;}.cls-4{fill:#d2195a;}.cls-5{stroke:#4aa3a5;stroke-width:3.54px;}.cls-12,.cls-13,.cls-5{stroke-miterlimit:10;}.cls-13,.cls-6{fill:#fff;}.cls-7{fill:#ecbd13;}.cls-8{fill:#2db9ac;}.cls-9{fill:#92a329;}.cls-10{fill:#e0e0e0;}.cls-11{fill:#d61561;}.cls-12,.cls-13{stroke:#fff;stroke-width:3.19px;}.cls-14{fill:#c71e5a;}</style><clipPath id="clip-path"><rect class="cls-1" width="442.86" height="442.86"/></clipPath></defs><title>casestudy1</title><g class="cls-2"><g id="Layer_1-2" data-name="Layer 1"><rect class="cls-3" x="-15.74" y="0.96" width="474.34" height="440.94"/><path class="cls-4" d="M218.88,187a.28.28,0,0,1,.18.09c2,2.18,3.9,4.78,3.9,7.23a4.11,4.11,0,1,1-8.2,0c0-2.45,1.9-5,3.9-7.23a.28.28,0,0,1,.22-.09Z"/><path class="cls-4" d="M213.23,201.12a.19.19,0,0,1,.12.06c1.37,1.5,2.68,3.27,2.68,5a2.82,2.82,0,1,1-5.62,0c0-1.68,1.3-3.46,2.68-5a.19.19,0,0,1,.15-.06Z"/></g><g id="Layer_2" data-name="Layer 2"><circle class="cls-5" cx="10.49" cy="34.5" r="10.48"/><circle class="cls-5" cx="74.41" cy="72.19" r="10.48"/><circle class="cls-5" cx="74.41" cy="145.9" r="10.48"/><circle class="cls-5" cx="136.48" cy="37.16" r="10.48"/><circle class="cls-5" cx="199.53" cy="72.19" r="10.48"/><circle class="cls-5" cx="199.53" cy="145.9" r="10.48"/><circle class="cls-5" cx="136.48" cy="181.35" r="10.48"/><circle class="cls-5" cx="261.25" cy="37.16" r="10.48"/><circle class="cls-5" cx="325.2" cy="72.19" r="10.48"/><circle class="cls-5" cx="325.2" cy="145.9" r="10.48"/><circle class="cls-5" cx="261.25" cy="181.35" r="10.48"/><circle class="cls-5" cx="137.58" cy="254.61" r="10.48"/><circle class="cls-5" cx="199.53" cy="290.4" r="10.48"/><circle class="cls-5" cx="262.99" cy="254.61" r="10.48"/><circle class="cls-5" cx="325.2" cy="290.4" r="10.48"/><circle class="cls-5" cx="388.42" cy="181.35" r="10.48"/><circle class="cls-5" cx="388.42" cy="254.61" r="10.48"/><circle class="cls-5" cx="438.46" cy="284.08" r="10.48"/><line class="cls-5" x1="20.97" y1="42.97" x2="66.9" y2="68.25"/><line class="cls-5" x1="84.9" y1="66.94" x2="126" y2="41.8"/><line class="cls-5" x1="74.41" y1="82.67" x2="74.41" y2="138.2"/><line class="cls-5" x1="84.81" y1="152.73" x2="127.07" y2="176.74"/><line class="cls-5" x1="146.95" y1="41.52" x2="189.73" y2="68.47"/><line class="cls-5" x1="199.53" y1="82.67" x2="199.53" y2="138.2"/><line class="cls-5" x1="208.41" y1="151.44" x2="252.83" y2="178.43"/><line class="cls-5" x1="208.28" y1="66.44" x2="250.77" y2="41.73"/><line class="cls-5" x1="271.73" y1="42.5" x2="315.85" y2="67.47"/><line class="cls-5" x1="325.2" y1="82.67" x2="325.2" y2="135.43"/><line class="cls-5" x1="315.78" y1="150.49" x2="271.73" y2="177.75"/><line class="cls-5" x1="334.16" y1="151.31" x2="379.63" y2="175.67"/><line class="cls-5" x1="388.42" y1="191.83" x2="388.42" y2="244.13"/><line class="cls-5" x1="397.07" y1="258.74" x2="427.99" y2="278.76"/><line class="cls-5" x1="334.77" y1="286.14" x2="379.77" y2="260.52"/><line class="cls-5" x1="315.77" y1="285.83" x2="271.73" y2="260.39"/><line class="cls-5" x1="252.51" y1="260.74" x2="210" y2="286.02"/><line class="cls-5" x1="146.95" y1="261.7" x2="191.09" y2="286.02"/><line class="cls-5" x1="137.53" y1="245.02" x2="136.48" y2="191.83"/><path class="cls-6" d="M9.9,292.15h0a1.57,1.57,0,0,1,1.57,1.57v49.64a1.57,1.57,0,0,1-1.57,1.57h0a1.57,1.57,0,0,1-1.57-1.57V293.72A1.57,1.57,0,0,1,9.9,292.15Z"/><path class="cls-6" d="M33.71,292.15h0a1.57,1.57,0,0,1,1.57,1.57v49.64a1.57,1.57,0,0,1-1.57,1.57h0a1.57,1.57,0,0,1-1.57-1.57V293.72A1.57,1.57,0,0,1,33.71,292.15Z"/><path class="cls-6" d="M77.35,292.15h0a1.57,1.57,0,0,1,1.57,1.57v49.64a1.57,1.57,0,0,1-1.57,1.57h0a1.57,1.57,0,0,1-1.57-1.57V293.72A1.57,1.57,0,0,1,77.35,292.15Z"/><path class="cls-6" d="M107.54,292.15h0a1.57,1.57,0,0,1,1.57,1.57v49.64a1.57,1.57,0,0,1-1.57,1.57h0a1.57,1.57,0,0,1-1.57-1.57V293.72A1.57,1.57,0,0,1,107.54,292.15Z"/><rect class="cls-6" x="8.33" y="291.35" width="100.78" height="4.71"/><path class="cls-6" d="M194.8,247.42h38a4.18,4.18,0,0,1,4.18,4.18h0a4.18,4.18,0,0,1-4.18,4.18h-38a4.18,4.18,0,0,1-4.18-4.18h0A4.18,4.18,0,0,1,194.8,247.42Z"/><path class="cls-3" d="M207.36,256V271.6l-22.52,62.84,60.23.2-21.83-63.22L223.13,256Z"/><rect class="cls-6" x="223.44" y="250.87" width="8.83" height="25.23" rx="4.22" ry="4.22"/><path class="cls-6" d="M203.75,267.34h0a4.59,4.59,0,0,1,2.88,5.81l-22.93,68a4.59,4.59,0,0,1-5.81,2.88h0a4.59,4.59,0,0,1-2.88-5.81l22.93-68A4.59,4.59,0,0,1,203.75,267.34Z"/><path class="cls-6" d="M179.67,334.88h70a5,5,0,0,1,5,5h0a5,5,0,0,1-5,5h-70a5,5,0,0,1-5-5h0A5,5,0,0,1,179.67,334.88Z"/><rect class="cls-6" x="235.11" y="265.92" width="8.96" height="80.85" rx="4.29" ry="4.29" transform="translate(-85.35 92.65) rotate(-18.64)"/><path class="cls-7" d="M200,298.58h30.57l10.63,34-52.06-.33Z"/><rect class="cls-6" x="197.51" y="251.11" width="9.58" height="24.07" rx="4.4" ry="4.4"/><rect class="cls-6" x="132.29" y="185.66" width="30.52" height="5.73" rx="2.8" ry="2.8"/><path class="cls-3" d="M142.79,191.55V202.2l-14.29,43,38.24.14-13.85-43.25-.07-10.53Z"/><rect class="cls-6" x="153.89" y="188.03" width="6.15" height="17.26" rx="2.75" ry="2.75"/><path class="cls-6" d="M123.9,251.76h0a3,3,0,0,0,3.8-1.9l0-.07,15.06-46.49a3.19,3.19,0,0,0-1.9-4h0a3,3,0,0,0-3.8,1.9l0,.07L121.93,247.8A3.19,3.19,0,0,0,123.9,251.76Z"/><rect class="cls-6" x="121.77" y="245.5" width="52.7" height="6.87" rx="3.37" ry="3.37"/><path class="cls-6" d="M172.72,251.82h0A3,3,0,0,1,169,250l0-.09L154.29,204.8a3.13,3.13,0,0,1,1.93-3.89h0a3,3,0,0,1,3.77,1.8l0,.09,14.63,45.11A3.13,3.13,0,0,1,172.72,251.82Z"/><path class="cls-8" d="M139.19,221.25h17.89l7.49,22.67H131.69Z"/><rect class="cls-6" x="136.83" y="188.18" width="6.3" height="16.47" rx="2.95" ry="2.95"/><rect class="cls-6" x="373.75" y="273.42" width="30.52" height="5.73" rx="2.8" ry="2.8"/><path class="cls-3" d="M384.24,279.31V290l-14.29,43,38.24.14-13.85-43.25-.07-10.53Z"/><rect class="cls-6" x="394.55" y="274.99" width="6.01" height="17.26" rx="2.72" ry="2.72"/><path class="cls-6" d="M365.35,339.52h0a3,3,0,0,0,3.8-1.9l0-.07L384.31,291a3.19,3.19,0,0,0-1.9-4h0a3,3,0,0,0-3.8,1.9l0,.07-15.14,46.51A3.19,3.19,0,0,0,365.35,339.52Z"/><rect class="cls-6" x="363.23" y="333.25" width="52.7" height="6.87" rx="3.37" ry="3.37"/><path class="cls-6" d="M413.89,339.52h0a3,3,0,0,1-3.8-1.9l0-.07L395,291.09a3.19,3.19,0,0,1,1.9-4h0a3,3,0,0,1,3.8,1.9l0,.07,15.08,46.47A3.19,3.19,0,0,1,413.89,339.52Z"/><path class="cls-9" d="M380.53,309h17.89l7.49,22.67H373Z"/><rect class="cls-6" x="378.28" y="275.94" width="6.3" height="16.47" rx="2.95" ry="2.95"/><path class="cls-7" d="M285.16,279.78c-8.92,7.61-13,19.21-10.44,30C278,323.67,291.5,332.61,305,332.38c11.95-.2,24.08-7.62,28.38-20.19a30.4,30.4,0,0,0-8.28-32"/><path class="cls-6" d="M319.71,306.35a7,7,0,1,0-7-7h0A7,7,0,0,0,319.71,306.35Zm0-10.72a3.75,3.75,0,1,1-3.75,3.75h0A3.76,3.76,0,0,1,319.71,295.63Z"/><path class="cls-6" d="M309,315.49a4.83,4.83,0,1,0-4.83-4.83h0A4.84,4.84,0,0,0,309,315.49Zm0-6.44a1.59,1.59,0,1,1-1.59,1.59A1.59,1.59,0,0,1,309,309h0Z"/><path class="cls-6" d="M339.19,275.39a43.91,43.91,0,0,0-21.51-15.14V238.74a4,4,0,0,0,3.19-3.87,4.41,4.41,0,0,0-3.63-4.18,1.59,1.59,0,0,0-.31,0H292.23a1.59,1.59,0,0,0-.31,0,4.41,4.41,0,0,0-3.63,4.18,4,4,0,0,0,3.19,3.87v21.51A43.91,43.91,0,0,0,270,275.39a43.56,43.56,0,1,0,78.16,26.51v0A43.15,43.15,0,0,0,339.19,275.39Zm-34.58,61c-19.8,0-34.13-17.32-34.25-34.25-.13-16.26,12.83-28.49,23.38-32.95a32,32,0,0,1,4-1.39l-.18-26.17,14-.25v26.29a34.84,34.84,0,0,1,4,1.59c9.92,4.6,23.44,16.6,23.34,32.95C338.75,318.81,324.58,336.41,304.61,336.41Z"/><path class="cls-10" d="M30.56,278.64c0-1.31-.69-2.39-1.54-2.39H14.11c-.84,0-1.54,1.07-1.54,2.39s.67,2.34,1.51,2.39V326.7c0,5.78,3.36,10.47,7.49,10.47s7.49-4.7,7.49-10.47V281C29.89,281,30.56,279.94,30.56,278.64ZM27.92,326.7c0,4.9-2.85,8.89-6.37,8.89s-6.37-4-6.37-8.89V281H27.92ZM29,279.44H14.11c-.22,0-.41-.37-.41-.8s.18-.8.41-.8H29c.22,0,.41.37.41.8S29.25,279.44,29,279.44Z"/><path class="cls-11" d="M14.08,303.89H29v26.79a9,9,0,0,1-3.94,7.17A8.55,8.55,0,0,1,21.54,339a9,9,0,0,1-4-1.59,8.76,8.76,0,0,1-3.39-6.68Z"/><path class="cls-10" d="M101.56,277.73c0-1.31-.69-2.39-1.54-2.39H85.12c-.84,0-1.54,1.07-1.54,2.39s.67,2.34,1.51,2.39V325.8c0,5.78,3.36,10.47,7.49,10.47s7.49-4.7,7.49-10.47V280.1C100.89,280.08,101.56,279,101.56,277.73Zm-2.64,48.05c0,4.9-2.85,8.89-6.37,8.89s-6.37-4-6.37-8.89V280.1H98.92v45.67Zm1.1-47.25H85.12c-.22,0-.41-.37-.41-.8s.18-.8.41-.8H100c.22,0,.41.37.41.8S100.25,278.52,100,278.52Z"/><path class="cls-8" d="M85.08,303h15v26.79a9,9,0,0,1-3.94,7.17,8.55,8.55,0,0,1-3.55,1.18,9,9,0,0,1-4-1.59,8.76,8.76,0,0,1-3.42-6.68Z"/><path class="cls-6" d="M24.46,327.17a2.87,2.87,0,1,0-2.87-2.87h0A2.87,2.87,0,0,0,24.46,327.17Zm0-4.41a1.55,1.55,0,1,1-1.55,1.55,1.55,1.55,0,0,1,1.55-1.55Z"/><path class="cls-6" d="M20.07,330.93a2,2,0,1,0-2-2h0A2,2,0,0,0,20.07,330.93Zm0-2.65a.66.66,0,1,1-.66.66h0a.66.66,0,0,1,.66-.65Z"/><path class="cls-10" d="M64.72,276.93c0-1.31-.69-2.39-1.54-2.39H48.24c-.84,0-1.54,1.07-1.54,2.39s.67,2.34,1.51,2.39V325c0,5.78,3.36,10.47,7.49,10.47s7.49-4.7,7.49-10.47V279.31C64,279.28,64.72,278.22,64.72,276.93ZM62.08,325c0,4.9-2.85,8.89-6.37,8.89s-6.37-4-6.37-8.89V279.31H62.08V325Zm1-47.25H48.24c-.22,0-.41-.37-.41-.8s.18-.8.41-.8H63.13c.22,0,.41.37.41.8S63.37,277.73,63.13,277.73Z"/><path class="cls-6" d="M92.76,325.29a2.87,2.87,0,1,0-2.88,2.86h0A2.87,2.87,0,0,0,92.76,325.29Zm-1.32,0a1.55,1.55,0,1,1-1.55-1.55,1.55,1.55,0,0,1,1.55,1.55Z"/><path class="cls-6" d="M96.27,330a2,2,0,1,0-2,2h0A2,2,0,0,0,96.27,330ZM95,330a.66.66,0,1,1-.66-.66h0A.67.67,0,0,1,95,330Z"/><circle class="cls-7" cx="56.05" cy="318.47" r="17.1"/><rect class="cls-7" x="48.18" y="294.58" width="15.05" height="9.31"/><path class="cls-6" d="M59.42,256a8,8,0,1,0-8-8A8,8,0,0,0,59.42,256Zm0-12.24A4.29,4.29,0,1,1,55.16,248v0A4.29,4.29,0,0,1,59.42,243.71Z"/><path class="cls-6" d="M47.19,266.39a5.51,5.51,0,1,0-5.51-5.51A5.51,5.51,0,0,0,47.19,266.39Zm0-7.33a1.85,1.85,0,1,1-1.85,1.85,1.85,1.85,0,0,1,1.85-1.85Z"/><path class="cls-6" d="M97.82,264.46A5.51,5.51,0,1,0,92.3,259,5.51,5.51,0,0,0,97.82,264.46Zm0-7.36A1.85,1.85,0,1,1,96,259a1.85,1.85,0,0,1,1.85-1.85Z"/><path class="cls-6" d="M141.73,182.22a9.67,9.67,0,1,0-9.67-9.67h0A9.68,9.68,0,0,0,141.73,182.22Zm0-14.88a5.21,5.21,0,1,1-5.21,5.21h0a5.22,5.22,0,0,1,5.21-5.21Z"/><path class="cls-6" d="M158.6,168.56a7.17,7.17,0,1,0-7.17-7.17h0A7.17,7.17,0,0,0,158.6,168.56Zm0-11.07a3.88,3.88,0,1,1-3.88,3.88h0A3.88,3.88,0,0,1,158.6,157.49Z"/><path class="cls-6" d="M143.22,154.17a4.63,4.63,0,1,0-4.63-4.63h0A4.63,4.63,0,0,0,143.22,154.17Zm0-7.11a2.49,2.49,0,1,1-2.49,2.49,2.49,2.49,0,0,1,2.49-2.49h0Z"/><line class="cls-12" x1="160.52" y1="212.86" x2="170.93" y2="202.46"/><line class="cls-12" x1="170.52" y1="134.14" x2="170.52" y2="203.48"/><path class="cls-13" d="M170.52,134.51a6.73,6.73,0,0,1,2.22-3.93,6.61,6.61,0,0,1,3.19-1.47"/><line class="cls-12" x1="175.56" y1="129.11" x2="235.06" y2="129.11"/><path class="cls-13" d="M240.16,123.71a6.73,6.73,0,0,1-2.22,3.93,6.61,6.61,0,0,1-3.19,1.47"/><line class="cls-12" x1="240.16" y1="124.06" x2="240.16" y2="111.02"/><path class="cls-13" d="M240.16,111.63a6.73,6.73,0,0,1,2.2-3.92,6.61,6.61,0,0,1,3.19-1.47"/><line class="cls-12" x1="245.25" y1="106.23" x2="299.26" y2="106.23"/><path class="cls-13" d="M304.06,111.63a6.73,6.73,0,0,0-2.22-3.93,6.61,6.61,0,0,0-3.19-1.47"/><line class="cls-12" x1="304.06" y1="111.02" x2="304.06" y2="230.66"/><path class="cls-6" d="M216.68,119.62h-1.46a6.52,6.52,0,0,0-6.37,6.52l0,11.74-3.6.06a1.29,1.29,0,0,0-1.27,1.29,1.24,1.24,0,0,0,1.24,1.24h0l5.15-.09.11,27.48a5.5,5.5,0,0,0,2.11,4.32v3a3.44,3.44,0,0,0,3.44,3.44h.07a3.52,3.52,0,0,0,2.47-1.07h0a3.53,3.53,0,0,0,1-2.49v-3a5.76,5.76,0,0,0,.45-.41,5.66,5.66,0,0,0,1.59-4l-.06-27.44,5.15-.09a1.29,1.29,0,0,0,1.26-1.29,1.25,1.25,0,0,0-1.26-1.24h0l-3.6.06,0-11.75a6.32,6.32,0,0,0-6.33-6.3Zm.46,55.53a1,1,0,0,1-.28.69h0a1,1,0,0,1-.68.29,1,1,0,0,1-1-.92v-1.89a5.23,5.23,0,0,0,1.93,0Zm2-30.34h-1.34a1.29,1.29,0,0,0-1.26,1.29,1.24,1.24,0,0,0,1.24,1.24h1.37v2.15h-1.34a1.29,1.29,0,0,0-1.27,1.29,1.24,1.24,0,0,0,1.24,1.24h1.38v2.15H217.8a1.29,1.29,0,0,0-1.27,1.29,1.25,1.25,0,0,0,1.26,1.24h1.36v1.7l-6.09,6.22L213,140.37l6.11-.11ZM220.58,126l0,11.74-9.21.17,0-11.74a3.94,3.94,0,0,1,3.86-4h1.46a3.82,3.82,0,0,1,3.89,3.76Z"/><path class="cls-4" d="M213.1,164.67l6.08-6.24.11,9.32a3.23,3.23,0,0,1-1,2.33,3.19,3.19,0,0,1-1.91.8,2.24,2.24,0,0,1-1-.1C213.79,170.22,212.89,167.76,213.1,164.67Z"/><rect class="cls-3" x="211.39" y="126.83" width="9.21" height="4.28"/><path class="cls-6" d="M212.18,131.84v4.07a1.24,1.24,0,0,0,1.24,1.24h0a1.29,1.29,0,0,0,1.27-1.29v-4.07a1.25,1.25,0,0,0-1.26-1.24h0A1.29,1.29,0,0,0,212.18,131.84Z"/><path class="cls-6" d="M212.22,127.76v.3a1.25,1.25,0,0,0,1.25,1.25h0a1.29,1.29,0,0,0,1.27-1.28v-.3a1.25,1.25,0,0,0-1.25-1.25h0A1.29,1.29,0,0,0,212.22,127.76Z"/><line class="cls-12" x1="390.66" y1="156.96" x2="390.66" y2="276.6"/><line class="cls-12" x1="315.04" y1="155.73" x2="385.66" y2="155.73"/><path class="cls-13" d="M390.53,161.13a6.73,6.73,0,0,0-2.22-3.93,6.61,6.61,0,0,0-3.19-1.47"/><line class="cls-12" x1="311.12" y1="160.99" x2="311.12" y2="230.33"/><path class="cls-13" d="M311.12,161.37a6.73,6.73,0,0,1,2.22-3.93,6.61,6.61,0,0,1,3.19-1.47"/><rect class="cls-3" x="385.66" y="149.14" width="9.97" height="58.52"/><path class="cls-6" d="M399,189V145.43a8.25,8.25,0,1,0-16.51,0V189a12.25,12.25,0,0,0-4.28,9.45,12.53,12.53,0,0,0,25.06,0A12.25,12.25,0,0,0,399,189Zm-8.25,18.59a9.15,9.15,0,0,1-5.58-16.41l.69-.49V145.4a4.88,4.88,0,0,1,9.74,0v8.76h-4.88v3.38h4.88v4.08h-4.88V165h4.88v4h-4.88v3.38h4.88v18.11l.69.49a9.09,9.09,0,0,1,3.58,7.26,9.23,9.23,0,0,1-9.11,9.35h0Z"/><path class="cls-14" d="M392.55,192.47V177.65h-4v14.91a6.37,6.37,0,0,0-4.17,5.86,6.27,6.27,0,0,0,12.53,0A6.09,6.09,0,0,0,392.55,192.47Z"/></g></g></svg>