<svg id="Layer_1" data-name="Layer 1" xmlns="http://www.w3.org/2000/svg" xmlns:xlink="http://www.w3.org/1999/xlink" viewBox="0 0 440 440"><defs><style>.cls-1{fill:none;}.cls-2{clip-path:url(#clip-path);}.cls-3{fill:url(#linear-gradient);}.cls-4{fill:#13351f;}.cls-5{fill:url(#linear-gradient-2);}.cls-6{fill:#5d5b55;}.cls-7{fill:#4d5046;}.cls-8{fill:url(#linear-gradient-3);}.cls-9{fill:#464646;opacity:0.48;}.cls-18,.cls-19,.cls-9{isolation:isolate;}.cls-10{fill:#291f17;}.cls-11{fill:#293820;}.cls-12{fill:#2f4c28;}.cls-13{fill:#416a33;}.cls-14{fill:#48793c;}.cls-15{fill:#4c823c;}.cls-16{fill:#578d45;}.cls-17{fill:#3e3024;}.cls-18{fill:#69a8db;}.cls-18,.cls-19{opacity:0.49;}.cls-19{fill:#9cb3bd;}.cls-20{fill:url(#linear-gradient-4);}.cls-21{fill:#a04d5a;}.cls-22{fill:#10182a;}.cls-23,.cls-25{fill:#c82127;}.cls-24{fill:#020202;}.cls-25{stroke:#040404;stroke-miterlimit:10;stroke-width:0.17px;}.cls-26{fill:#f7f7f7;}.cls-27{fill:#bcbcbb;}.cls-28{fill:#1e3d64;}.cls-29{fill:#193f6b;}.cls-30{fill:#183058;}.cls-31{fill:#507fa3;}.cls-32{fill:#e65825;}.cls-33{fill:#d1697d;}.cls-34{fill:#864756;}</style><clipPath id="clip-path"><rect class="cls-1" width="440" height="440"/></clipPath><linearGradient id="linear-gradient" x1="213.03" y1="47.46" x2="213.03" y2="-413.7" gradientTransform="matrix(1, 0, 0, -1, 0, 32.11)" gradientUnits="userSpaceOnUse"><stop offset="0" stop-color="#555aa7"/><stop offset="0.1" stop-color="#6b90c9"/><stop offset="0.26" stop-color="#896fb1"/><stop offset="0.38" stop-color="#f69fb1"/></linearGradient><linearGradient id="linear-gradient-2" x1="-104.2" y1="-351.09" x2="531" y2="-351.09" gradientTransform="matrix(1, 0, 0, -1, 0, 32.11)" gradientUnits="userSpaceOnUse"><stop offset="0" stop-color="#1e743a"/><stop offset="0.58" stop-color="#046938"/><stop offset="0.75" stop-color="#046938"/><stop offset="0.89" stop-color="#046938"/></linearGradient><linearGradient id="linear-gradient-3" x1="330.51" y1="-414.76" x2="330.51" y2="-58.64" gradientTransform="matrix(1, 0, 0, -1, 0, 32.11)" gradientUnits="userSpaceOnUse"><stop offset="0.13" stop-color="#555aa7"/><stop offset="0.47" stop-color="#6b90c9"/><stop offset="0.72" stop-color="#896fb1"/><stop offset="1" stop-color="#f69fb1"/></linearGradient><linearGradient id="linear-gradient-4" x1="130.68" y1="1168.58" x2="159.53" y2="1168.58" gradientTransform="matrix(-1, 0, 0, 1, 306.76, -801.1)" gradientUnits="userSpaceOnUse"><stop offset="0" stop-color="#a34f5f"/><stop offset="1" stop-color="#a34f5f"/></linearGradient></defs><title>casestudy2</title><g class="cls-2"><rect class="cls-3" x="-104.95" y="-15.35" width="635.95" height="461.16"/><path class="cls-4" d="M24.63,115.92l-1.7,4.89H36.43l-2-4.89Z"/><path class="cls-4" d="M-2.5,119.86l-1.7,4.89H9.31l-2-4.89Z"/><polygon class="cls-4" points="-15.16 112.3 -17.82 124.75 -4.74 118.47 2.39 123.58 11.75 117.09 23.03 124.75 20.16 112.3 10.16 96.03 -4.74 96.03 -15.16 112.3"/><path class="cls-4" d="M158.45,128.26l-1.7,4.89h13.51l-2-4.89Z"/><polygon class="cls-4" points="145.79 120.71 143.24 133.05 156.22 126.88 163.35 131.98 172.71 125.49 183.99 133.05 181.11 120.71 171.22 104.43 156.22 104.43 145.79 120.71"/><path class="cls-4" d="M102.07,122.51l-1.7,4.89h13.51l-2-4.89Z"/><path class="cls-4" d="M131.33,132.09l-1.7,4.89h13.51l-2-4.89Z"/><polygon class="cls-4" points="118.67 124.54 116.11 136.98 129.09 130.71 136.22 135.81 145.47 129.32 156.86 136.98 153.99 124.54 143.99 108.26 129.09 108.26 118.67 124.54"/><polygon class="cls-5" points="-104.2 318.04 176.75 318.79 530.89 319.64 531 445.81 -104.2 448.36 -104.2 318.04"/><polygon class="cls-6" points="227.5 320.28 245.05 110.6 269.94 80.81 263.03 73.05 262.18 40.18 279.51 31.67 300.69 35.6 328.24 31.67 348.66 19.96 377.49 24.54 392.28 10.71 427.49 13.37 445.79 25.18 472.7 19.96 495.89 10.71 505.04 10.71 511.21 0.28 530.04 0.28 529.94 321.98 227.5 320.28"/><polygon class="cls-6" points="-104.63 99.64 -92.82 94.96 -88.46 105.71 -84.41 99.64 -74.84 105.71 -57.18 105.71 -41.97 91.88 -23.99 105.71 -18.14 105.71 -11.12 91.88 15.16 98.79 34.63 114.75 39.84 123.15 56.65 114.75 72.07 120.71 85.58 118.37 85.58 111.13 99.41 107.52 108.77 114.75 116.22 88.37 142.28 94.32 173.24 105.71 157.07 158.47 151.54 319.64 -105.27 324.11 -104.63 99.64"/><path class="cls-7" d="M445.79,25.18l-8.62,48-7.34,23.19v23.19l5.43,24.25-11.17,13.3-8.62,17.13,1.81-40.64,1.6-24.89-4.36-18.83,14.15-17.77L422,51l16.6-30.64Z"/><path class="cls-8" d="M173.24,101.88a184.76,184.76,0,0,1,87-9.57c-7.55,48.3-13.62,87.34-17.55,113.08-13,84.89-15.11,101.49-3.94,116.59,20.64,27.77,61.17,17.66,132.23,26.81,42.23,5.43,97,17.77,159.89,47.23l.11,49.89-250.63,1c3.4-6.49,6.38-14.89,3-21.38-3.09-5.85-8.94-5.53-14.57-11.06-8.72-8.3-3.19-18.94-7.23-29.25-6.91-17.55-34-15.43-69.68-29.47-22.55-8.94-39.68-15.64-50.85-30.11-21.49-27.66-9-75.53,16.6-170.21C163.67,133.26,169.2,115,173.24,101.88Z"/><path class="cls-9" d="M79,375.13q103.41,9.37,105.18.09c.41-2.3-3.86-5.43-12.9-9.45Z"/><path class="cls-10" d="M102.5,321.77l-3,8.3h23l-3.4-8.3Z"/><polygon class="cls-7" points="109.84 128.05 110.8 144.43 107.18 148.69 104.41 168.37 107.18 174.11 107.18 184.53 97.18 204.22 91.01 219.43 103.45 183.47 104.41 175.71 100.9 168.37 103.77 154.85 107.18 144.11 109.84 128.05"/><polygon class="cls-11" points="81.01 309 76.65 330.06 98.77 319.53 110.8 328.15 126.65 317.19 145.79 330.06 141.01 309 124.09 281.34 98.77 281.34 81.01 309"/><polygon class="cls-12" points="85.9 274.11 76.11 316.98 95.58 300.92 110.05 314.43 125.8 302.62 144.73 316.98 133.99 271.77 125.8 254.85 103.88 254.85 85.9 274.11"/><polygon class="cls-13" points="91.97 246.13 81.86 285.49 98.67 272.19 110.8 284.32 123.56 273.15 138.88 285.49 128.35 244.32 119.94 229.43 101.86 229.43 91.97 246.13"/><path class="cls-14" d="M104.31,189.75,87.6,249.53l13.19-10.11,9.79,12.87,11.06-13.94,12.45,11.17L116,191.34,110.58,203Z"/><path class="cls-15" d="M107,170,94.41,213.68l8.4-6.6,7.55,15.21L117.71,207l8.19,6.7-11-40.42-4.57,7.66Z"/><path class="cls-10" d="M-4.95,315.28l-3,8.3h23l-3.4-8.3Z"/><polygon class="cls-11" points="-26.44 302.51 -30.9 323.57 -8.67 313.04 3.35 321.66 19.2 310.7 38.35 323.57 33.46 302.51 16.65 274.96 -8.67 274.96 -26.44 302.51"/><polygon class="cls-12" points="-21.54 267.62 -31.33 310.49 -11.86 294.43 2.61 307.94 18.24 296.13 37.29 310.49 26.54 265.28 18.24 248.36 -3.56 248.36 -21.54 267.62"/><polygon class="cls-13" points="-15.59 239.64 -25.69 279 -8.78 265.7 3.24 277.94 16.12 266.66 31.43 279 20.9 237.94 12.39 222.94 -5.59 222.94 -15.59 239.64"/><path class="cls-14" d="M-3.14,183.26-19.84,243l13.19-10.11,9.79,12.87L14.2,231.87,26.65,243,8.56,184.85l-5.43,11.7Z"/><path class="cls-15" d="M-.59,163.47l-12.55,43.72,8.4-6.6,7.55,15.21,7.34-15.32,8.19,6.7-11-40.42-4.57,7.66Z"/><path class="cls-16" d="M2.71,135.49l-9.79,38.83,6-5.64,3.83,5.64,3.72-5.43,6.06,5.43Z"/><path class="cls-10" d="M48.77,334.11l-3,8.3h23l-3.4-8.3Z"/><polygon class="cls-11" points="27.39 321.34 22.92 342.4 45.05 331.87 57.18 340.49 72.92 329.53 92.18 342.4 87.28 321.34 70.48 293.68 45.05 293.68 27.39 321.34"/><polygon class="cls-12" points="32.29 286.45 22.39 329.32 41.86 313.26 56.33 326.77 72.07 314.96 91.11 329.32 80.26 284.11 72.07 267.19 50.16 267.19 32.29 286.45"/><polygon class="cls-13" points="38.24 258.47 28.14 297.83 44.95 284.53 57.07 296.77 69.84 285.49 85.26 297.83 74.63 256.66 66.22 241.77 48.14 241.77 38.24 258.47"/><polygon class="cls-7" points="44.09 123.15 43.14 139.54 46.75 143.69 49.52 163.47 46.75 169.22 46.75 179.53 56.75 199.32 62.92 214.53 50.48 178.58 49.52 170.81 53.03 163.47 50.16 149.85 46.75 139.22 44.09 123.15"/><path class="cls-14" d="M50.58,202.09l-16.7,59.79,13.19-10.21,9.79,12.87L67.92,250.6l12.45,11.17L62.29,203.58l-5.43,11.7Z"/><path class="cls-15" d="M53.24,182.3,40.69,226l8.4-6.6,7.55,15.21L64,219.32l8.19,6.7-11-40.42-4.57,7.66Z"/><path class="cls-16" d="M56.54,154.32l-9.79,38.83,6-5.64,3.83,5.64,3.72-5.43,6.06,5.43Z"/><path class="cls-10" d="M379.51,314.43l-2.87,8h22l-3.3-8Z"/><polygon class="cls-11" points="359.09 300.17 354.83 320.28 376 310.28 387.49 318.47 402.6 307.94 421 320.28 416.32 300.17 400.26 273.79 376 273.79 359.09 300.17"/><polygon class="cls-12" points="363.66 266.77 354.3 307.83 372.92 292.4 386.75 305.38 401.85 294 419.94 307.83 409.62 264.53 401.85 248.36 380.9 248.36 363.66 266.77"/><polygon class="cls-13" points="369.41 240.07 359.83 277.73 375.9 264.96 387.49 276.66 399.73 265.92 414.41 277.73 404.19 238.36 396.21 224.11 378.98 224.11 369.41 240.07"/><path class="cls-14" d="M381.22,186.13l-16,57.13,12.66-9.68,9.36,12.34,10.53-13.4,11.91,10.74-17.34-55.64-5.21,11.17Z"/><path class="cls-15" d="M383.77,167.2l-12,41.81,8.08-6.28,7.23,14.47,7-14.57L402,209l-10.53-38.72-4.36,7.34Z"/><path class="cls-16" d="M387,140.39l-9.36,37.13,5.74-5.32,3.62,5.32,3.51-5.21,5.85,5.21Z"/><path class="cls-10" d="M276.75,314.32l-2.87,8h22l-3.3-8Z"/><polygon class="cls-7" points="261.32 126.56 267.49 136.03 271.22 136.98 280.79 146.77 281.54 151.13 285.79 156.88 299.41 163.79 308.98 169.64 287.49 154.85 283.77 150.92 282.71 145.39 275.58 139 269.3 134.43 261.32 126.56"/><path class="cls-7" d="M320.26,33.47,329.62,57,317.17,69.75l2.34,17.13-10.43,16.38-25.32,83.93,8.3-94.68,17-31.91Z"/><polygon class="cls-11" points="256.32 304.21 252.07 324.32 273.24 314.32 284.73 322.51 299.94 311.98 318.24 324.32 313.56 304.21 297.49 277.73 273.24 277.73 256.32 304.21"/><polygon class="cls-12" points="261 268.79 251.54 309.75 270.15 294.43 283.98 307.4 299.09 296.02 317.17 309.75 306.86 266.56 299.09 250.38 278.13 250.38 261 268.79"/><polygon class="cls-13" points="266.64 241.98 257.07 279.75 273.13 266.98 284.73 278.58 296.96 267.83 311.64 279.75 301.43 240.38 293.45 226.13 276.22 226.13 266.64 241.98"/><path class="cls-14" d="M278.45,188l-16,57.13,12.66-9.68,9.26,12.34L295,234.53,307,245.28l-17.34-55.64-5.21,11.17Z"/><path class="cls-15" d="M281,169.22,269,211l8.08-6.28,7.23,14.47,7-14.57L299.2,211,288.66,172.3l-4.36,7.34Z"/><path class="cls-16" d="M284.2,142.41l-9.36,37.13,5.74-5.32,3.62,5.32,3.51-5.21,5.85,5.21Z"/><path class="cls-10" d="M328.24,324.21l-2.87,8h22l-3.3-8Z"/><polygon class="cls-11" points="307.71 311.98 303.45 332.09 324.62 322.09 336.22 330.28 351.32 319.75 369.62 332.09 365.05 311.98 348.88 285.6 324.62 285.6 307.71 311.98"/><polygon class="cls-12" points="312.39 278.58 303.03 319.64 321.64 304.21 335.47 317.19 350.47 305.81 368.66 319.64 358.34 276.45 350.47 260.17 329.51 260.17 312.39 278.58"/><polygon class="cls-13" points="318.13 251.87 308.45 289.53 324.62 276.77 336.11 288.47 348.34 277.73 363.02 289.53 352.92 250.17 344.83 235.92 327.6 235.92 318.13 251.87"/><path class="cls-14" d="M329.94,197.94l-16,57.13,12.66-9.68L336,257.73l10.53-13.3,11.91,10.74-17.34-55.64L335.9,210.7Z"/><path class="cls-15" d="M332.49,179l-12,41.81,8.08-6.28L335.79,229l7-14.57,7.87,6.38-10.53-38.72-4.36,7.34Z"/><path class="cls-16" d="M335.58,152.2l-9.36,37.13L332,184l3.62,5.32,3.51-5.21,5.85,5.21Z"/><path class="cls-17" d="M422,324.11l-4,11.17h30.85l-4.57-11.17Z"/><polygon class="cls-11" points="393.13 306.98 387.17 335.17 416.96 321.13 433.13 332.62 454.41 317.83 480.15 335.17 473.55 306.98 451 269.85 416.96 269.85 393.13 306.98"/><polygon class="cls-12" points="399.73 260.07 386.54 317.62 412.6 296.02 432.07 314.21 453.24 298.36 478.66 317.62 464.19 256.98 453.24 234.22 423.77 234.22 399.73 260.07"/><polygon class="cls-13" points="407.7 222.51 394.19 275.38 416.85 257.51 433.02 273.89 450.26 258.79 470.79 275.38 456.64 220.17 445.26 200.17 421.11 200.17 407.7 222.51"/><path class="cls-14" d="M424.3,146.77,401.85,227l17.77-13.62L432.7,230.7,447.6,212l16.7,15.11L440,149l-7.34,15.74Z"/><path class="cls-15" d="M427.92,120.28,411,178.9l11.28-8.83,10.11,20.32,9.79-20.53,11,9-14.79-54.36-6.17,10.32Z"/><path class="cls-16" d="M432.28,82.62l-13.19,52.23,8-7.55,5.11,7.55,5-7.34,8.19,7.34Z"/><polygon class="cls-7" points="-11.22 104.86 7.18 126.88 21.33 165.6 20.27 119.11 10.37 96.77 -6.86 92.73 -11.22 104.86"/><polygon class="cls-7" points="111.54 114.64 110.58 130.92 114.2 135.17 116.97 154.96 114.2 160.6 114.2 171.03 124.2 190.81 130.37 205.92 117.82 170.07 116.97 162.3 120.48 154.96 117.5 141.34 114.2 130.6 111.54 114.64"/><path class="cls-7" d="M111.86,103.58l18.51,18.83,14.15,38.72-1.06-46.49L133.56,92.3l-17.23-4Z"/><polygon class="cls-7" points="88.88 118.05 81.43 132.62 82.92 137.94 77.5 157.09 72.6 161.24 68.45 170.71 69.52 192.83 69.09 209.22 72.18 171.34 74.52 163.9 80.69 158.58 83.56 144.96 84.84 133.79 88.88 118.05"/><path class="cls-7" d="M262.49,40.18l12.77-7.45-5.32,107.55-1.6-59.79-5.21-7.55Z"/><polygon class="cls-7" points="258.45 108.15 261.43 112.83 263.35 113.26 268.03 118.05 268.45 120.17 270.47 123.05 277.18 126.45 281.86 129.32 271.32 121.98 269.51 120.07 268.98 117.41 265.47 114.22 262.39 111.98 258.45 108.15"/><polygon class="cls-7" points="392.28 10.71 406 22.52 393.13 54.86 398.02 78.05 393.13 103.47 381.22 128.69 389.09 102.83 386.11 78.05 389.73 63.58 385.47 45.49 392.39 28.37 392.28 10.71"/><path class="cls-16" d="M110.26,141.88l-9.79,38.83,6-5.64,3.83,5.64,3.72-5.43,6.06,5.43Z"/><polygon class="cls-7" points="371.85 108.26 365.15 123.26 366.96 128.47 362.49 147.83 357.92 152.19 354.19 161.88 356.43 184 356.85 200.28 358.02 162.3 359.94 154.75 365.79 149.11 367.92 135.39 368.66 124.22 371.85 108.26"/><path class="cls-18" d="M173.24,101.88A659.91,659.91,0,0,0,152,202.19c-3.51,26.49-7.55,69.57-3.51,70.32,6.81,1.17,33.3-121.59,35.85-121.06,1,.21-3.09,17.87-5.74,45.53-2.55,26.49-3.3,57.66-1,57.87,4.57.53,19.25-112,23.72-111.49,3.94.43-3.94,87.76.53,88.19,3.4.43,11-52.13,14.26-51.7,4.26.53-5.74,90.64,0,91.59,5.32.85,23.08-76.38,44.25-179A161.31,161.31,0,0,0,173.24,101.88Z"/><path class="cls-18" d="M194.84,276.87c6.17,1.81.85,37.66,4.15,38.19,2.55.43,5.32-22,13-22.77,2.55-.21,4.15,2.45,18.4,23.19,10.11,14.68,11.38,18.94,10.53,19.68-2,1.7-16.49-16.49-22.13-13.3-4.89,2.66.11,19.89-2.13,20.43S210.58,324.11,202.5,323c-8.3-1-15.11,17.34-18.72,16.06-2.45-.85-2.34-10.43,3.51-38.83C162.92,329.64,153.56,334,149.73,332c-3.09-1.7-2.87-8-2.45-20.43.64-15.32,3.4-35.32,6.49-35.21,4,.11,2.23,35,11,36.7C174.52,315.06,188.13,275,194.84,276.87Z"/><path class="cls-18" d="M260.9,343.15c-16-3.94-24.25-5.11-24.89-3.4-.53,1.38,4.26,4.79,14.36,10.11-5.53.21-13.51.21-23.08-.21-18.83-1-29.15-3.19-29.36-2.13-.43,1.6,24.68,9.47,46.81,15.11,19.47,5,26.7,5.85,41.17,11.6,12.45,4.89,20.43,10.32,21.17,9.15s-8.62-10.32-19.79-17.45c-10.53-6.7-16.81-8.08-16.49-10.21.43-2.87,11.49-3.4,32.45-4.36,33.19-1.38,45.11-1.49,45.21-2.23s-14.68-2.77-77.76-7.87c-11.49-5.11-17.45-7.13-18.08-6.06S254.94,338.68,260.9,343.15Z"/><path class="cls-19" d="M187.18,96.56a457.36,457.36,0,0,0-14.79,69.57c-2.45,18.4-5.21,48.3-2.45,48.72,4.68.85,23.08-84.36,24.89-83.93.64.11-2.13,12.45-3.94,31.6-1.7,18.4-2.34,40-.64,40.11,3.19.32,13.4-77.66,16.49-77.34,2.66.32-2.66,60.85.32,61.17,2.34.21,7.66-36.17,9.89-35.85,3,.32-4.15,62.76,0,63.51,3.83.64,16.28-51.59,31.38-122.13a148.56,148.56,0,0,0-61.17,4.57Z"/><g id="Layer_2" data-name="Layer 2"><g id="Layer_1-2" data-name="Layer 1-2"><path class="cls-20" d="M151.21,357.43,162.33,369l2,.15c1,.15,2,.22,3,.3a3.8,3.8,0,0,1,1-.38,4.26,4.26,0,0,1,2.19.15,2.7,2.7,0,0,1,2.49.38,4,4,0,0,1,2,1.21,4.52,4.52,0,0,1,1.06,2.72l-2.27-1.73c-5.21.22-6.5.3-6.5.46s2,.22,4.26.9a7.91,7.91,0,0,1,2.19.9,3.35,3.35,0,0,1,.83.61,4.49,4.49,0,0,1,1.06,2.87,5.88,5.88,0,0,0-4.46-1,3.12,3.12,0,0,0-.83-.53,5.43,5.43,0,0,0-1.89-.53,2.72,2.72,0,0,1-2-.07,2.51,2.51,0,0,1-1.06-.9,3.1,3.1,0,0,1-3.33-1.06,5,5,0,0,1-4-1.59h-.29a1.84,1.84,0,0,0-1.89,1.73,9.68,9.68,0,0,1-4.09,1.36,5.51,5.51,0,0,1,3-4.31l1.51-1.44-9.15-9.57"/><path class="cls-21" d="M121.5,355.69l-9.9,6L108.8,360a6.22,6.22,0,0,0-3.19,1.14,4,4,0,0,0-.07,2.65,4,4,0,0,0,2.8,2.49,3.39,3.39,0,0,1-.76-2,3.19,3.19,0,0,1,.22-1.21,2.89,2.89,0,0,1,2.72,1.89c-.22.83-.46,1.59-.61,2.13a30.14,30.14,0,0,0-.83,2.95c-.22,1.06-.07,1.29-.3,2.13a7.27,7.27,0,0,1-.83,2.13,2.86,2.86,0,0,0,0,1.14,11,11,0,0,0,.53,1.44,12.67,12.67,0,0,1,.22,1.36,3,3,0,0,0,1,1.51,6.14,6.14,0,0,1,1.59-3.48,4.74,4.74,0,0,0,.22-1.44,18.45,18.45,0,0,1-.07-2,3.52,3.52,0,0,1,.46-1.51,3.47,3.47,0,0,1,1.29,2.13,2.35,2.35,0,0,0,.53,1.36,3.06,3.06,0,0,0,.68.38,4.81,4.81,0,0,1,2,1.44l.9-.22,1.13-.26,3,2.57a4.54,4.54,0,0,0-2-4.16l-.68-1.06-2.41-.61a4.18,4.18,0,0,1-1.36-3,5.93,5.93,0,0,0,3.33,3,26.67,26.67,0,0,1,8.08,1,4,4,0,0,0-2.8-2.8l-1.44-1.21a7.29,7.29,0,0,1-6.81-3.63v-1.44l8.24-5.67"/><path class="cls-22" d="M177.58,311.23a5.32,5.32,0,0,0-1-1.29c-2.95-2.87-7.71-2-8.91-1.44-.07,0-1,.53-2.27,1.29h0a22.78,22.78,0,0,0-6.72,7.45,23,23,0,0,0-1.82,4.26,14.72,14.72,0,0,1-2.72,3l-9.57.15a20.7,20.7,0,0,0-13,4.31,34.62,34.62,0,0,1-10.44,6.5l-7.79.68A13.37,13.37,0,0,0,105,338l-3.19,1.82a1.3,1.3,0,0,0-.9.76c-.22.83.68,1.73,1.29,2.13,1.36.76,3.7,0,5.89-1.89a10.23,10.23,0,0,0,7.79,4.61,6.38,6.38,0,0,0,6-.3,4.87,4.87,0,0,0-2.19,4.61,30,30,0,0,0,.61,3.4c.15.68.46,2,.76,2.95a18.38,18.38,0,0,0,2.72,5.45,45.13,45.13,0,0,0,16.4-2.8,3.19,3.19,0,0,0,3.48,1,1.51,1.51,0,0,0,1.14-.15,1.44,1.44,0,0,0,.68-1.21,1.7,1.7,0,0,0,.15,1.36,1.34,1.34,0,0,0,.83.61,12.33,12.33,0,0,0,6.5-3,3.48,3.48,0,0,0,0-3.63,15.86,15.86,0,0,0,3.78-.68c.46-.15,12.1-3.63,14.51-14.14a18.58,18.58,0,0,0-1.36-11.95l1.36-.83a4.19,4.19,0,0,0,4,0c.3-1.44.68-3.78,1.29-6.65C177.28,315.78,178.79,313.51,177.58,311.23Z"/><path class="cls-23" d="M178.11,313.13a26.46,26.46,0,0,1,.07,15.87,15.69,15.69,0,0,1-5-.83,17.91,17.91,0,0,1-9.3-7.71,6.19,6.19,0,0,0,9.37-7.33,2.51,2.51,0,0,1,1.66-2.49,2.7,2.7,0,0,1,3.19,2.49Z"/><ellipse class="cls-24" cx="176.22" cy="319.79" rx="0.38" ry="0.68"/><path class="cls-25" d="M169.88,321.22a10.07,10.07,0,0,0,8.08,7.94"/><ellipse class="cls-26" cx="169.04" cy="313.13" rx="3.1" ry="3.48"/><circle class="cls-24" cx="169.04" cy="313.44" r="1.14"/><circle class="cls-26" cx="168.54" cy="312.64" r="0.38" transform="translate(-38.86 24.31) rotate(-7.4)"/><path class="cls-27" d="M166.47,311.32a3.56,3.56,0,0,0,.61,4.31,2.54,2.54,0,0,0,2.13.83l.22-.07a3.29,3.29,0,0,1-2.34-1.36,3.48,3.48,0,0,1,.76-4.84A2.84,2.84,0,0,0,166.47,311.32Z"/><path class="cls-28" d="M174.49,308.67a10.13,10.13,0,0,0-6.38-.22h.38a8.37,8.37,0,0,1,1.44.15,4.62,4.62,0,0,1,1.66,1,4.37,4.37,0,0,1,1.21,3.26s-.15.07,0,.07.68-1.89,1.73-2.41c.46-.22,1.29-.3,2.72.53A6.59,6.59,0,0,0,174.49,308.67Z"/><path class="cls-29" d="M163.75,338.61A27.39,27.39,0,0,0,168.82,326a28.62,28.62,0,0,1,.22,11.34c-1.06,5.67-4,10.51-5.89,11.79a18.08,18.08,0,0,1-4.38,2.13h0a26.2,26.2,0,0,1-5.82,1.89l-1.36-.07h0C151.58,353,161.56,341.33,163.75,338.61Z"/><path class="cls-30" d="M170.86,331.72a16,16,0,0,1,0,5.32c-1,6.2-5.89,11.79-11.64,14.36a19.76,19.76,0,0,1-6.28,1.66,29.05,29.05,0,0,0,13.76-14.58,28.56,28.56,0,0,0,2.13-12.55A18.59,18.59,0,0,1,170.86,331.72Z"/><path class="cls-30" d="M131.4,328.55a26.67,26.67,0,0,0-9.76,16.1,32.15,32.15,0,0,0,23.4.3,28.4,28.4,0,0,0,10.44-20.64C154.23,323.94,141.86,320.38,131.4,328.55Z"/><path class="cls-31" d="M145,344.72l-.61-1.51-.83.53c-.53.3-1,.68-1.51,1l7.18-9.15h0c.83-1.36,1.59-2.8,2.41-4.26,1.29-2.34,2.49-4.61,3.63-6.88A29.27,29.27,0,0,1,145,344.72Z"/><path class="cls-32" d="M177,311.39a1.84,1.84,0,0,1,.76,1.06A28.53,28.53,0,0,1,179,323.19q-.34,2.95-.9,5.89a40.53,40.53,0,0,0-3.1-18.21A2.13,2.13,0,0,1,177,311.39Z"/><path class="cls-22" d="M121.43,344.49a.73.73,0,0,0,.9.38l3.85-3.33L121.65,344A.69.69,0,0,0,121.43,344.49Z"/><path class="cls-33" d="M173,369.67a5.59,5.59,0,0,1,0,1.59,3,3,0,0,0,.38-1.06.56.56,0,0,0,.07-.38Z"/><path class="cls-33" d="M170.1,369.15a2.56,2.56,0,0,1-.22,1.51,2.8,2.8,0,0,0,.61-1.36Z"/><path class="cls-33" d="M123.69,371a2.48,2.48,0,0,1-.3,1.44,2.71,2.71,0,0,0,.53-.76,1.06,1.06,0,0,0,.15-.53Z"/><path class="cls-33" d="M120,374.81a1.33,1.33,0,0,1-.3.38,1.8,1.8,0,0,1-.83.46,1.79,1.79,0,0,0,.61-.68c0-.15.07-.3.07-.46"/><path class="cls-33" d="M116.33,372.85v.46a1.8,1.8,0,0,1-.46.83,1.79,1.79,0,0,0,.61-.68c.07-.15.15-.38.22-.53Z"/><path class="cls-33" d="M121.79,369.74a.56.56,0,0,1,.07.38,1.39,1.39,0,0,1-.38.9,1.83,1.83,0,0,0,.61-.83,1,1,0,0,0,.07-.46Z"/><path class="cls-33" d="M111.52,375.65l-.68-.22a2.18,2.18,0,0,0-1.36.22,1.9,1.9,0,0,1,1.29.07,1.65,1.65,0,0,1,.61.38Z"/><path class="cls-33" d="M106.16,360.45a1.65,1.65,0,0,1,.22.38,2.39,2.39,0,0,1,.3,1.21,1.68,1.68,0,0,0-.61-1l-.46-.22Z"/><path class="cls-33" d="M109.1,360.37a1.82,1.82,0,0,1-.76.76,2.06,2.06,0,0,0,.46-.9,1,1,0,0,0,.07-.46l.38.22C109.18,360.07,109.18,360.22,109.1,360.37Z"/><path class="cls-33" d="M174,374.29a1,1,0,0,0-.61.22,1.66,1.66,0,0,0-.68.76,2.62,2.62,0,0,1,1.59-.76Z"/><path class="cls-33" d="M171.54,373.22a8.92,8.92,0,0,0-1.29,1.51,4.32,4.32,0,0,1,1-1.59l.3.07Z"/><path class="cls-33" d="M154.76,371.26a3.43,3.43,0,0,0,.22,1.21,5.46,5.46,0,0,1-.68-1.51l.46-.3Z"/><polygon class="cls-34" points="147.66 360.07 149.01 359.69 156.35 369.22 147.66 360.07"/><path class="cls-34" d="M110,366.8a21.52,21.52,0,0,0-.83,2.95c-.15,1.06-.07,1.14-.22,2a6.86,6.86,0,0,1-.9,2.34,4.33,4.33,0,0,0,.61,2.57,6.64,6.64,0,0,1,.07-2.13,7.9,7.9,0,0,1,.3-1.29c.22-.83.68-3,1.51-8.51C110.31,365.6,110.08,366.35,110,366.8Z"/><polygon class="cls-34" points="111.59 361.44 120.89 355.77 121.11 356.6 111.59 361.44"/><path class="cls-33" d="M118.7,373.37h-.07a2.2,2.2,0,0,1-.15.68.76.76,0,0,0,.3-.38c.07-.07.07-.07.07-.15S118.85,373.46,118.7,373.37Z"/><path class="cls-33" d="M111.52,373.46a.87.87,0,0,0-.76-.61.48.48,0,0,1,.46,0,.57.57,0,0,1,.3.15v.46Z"/><path class="cls-33" d="M167.3,369.45a1.06,1.06,0,0,0,.22.3,1.66,1.66,0,0,1,.07.61,1.12,1.12,0,0,0,0-1Z"/><path class="cls-34" d="M173,376.7a12.76,12.76,0,0,0-1.66-.07c-.22-.15-.46-.22-.68-.38a9.89,9.89,0,0,0-2.13-.68,2.53,2.53,0,0,1-3.1-1,2.87,2.87,0,0,1-3.33-1.06,5,5,0,0,1-4-1.59c.46.15,1.21.46,2.19.83a55,55,0,0,0,9.76,2.72,11.7,11.7,0,0,1,4.77,1.51c.38.22.68.46.9.61A8.88,8.88,0,0,0,173,376.7Z"/><polygon class="cls-34" points="167.31 372.32 166.92 371.86 173.81 371.86 167.31 372.32"/><path class="cls-34" d="M113.14,373.15a2.39,2.39,0,0,0,.3,1.21,1.77,1.77,0,0,0,.53.53,5.83,5.83,0,0,1,2.57,1.66l2-.46a10.24,10.24,0,0,1-3.33-1.51,10.93,10.93,0,0,1-2.8-2.8,7,7,0,0,1-.38-.61A2.78,2.78,0,0,1,113.14,373.15Z"/><path class="cls-34" d="M126.34,373.75a24,24,0,0,0-8.08-.9,5.7,5.7,0,0,1-3.33-3,11,11,0,0,1,1.36.83c.15.07,1.29.83,2,1.14a9.57,9.57,0,0,0,3.55.68,15.6,15.6,0,0,1,4.53,1.29Z"/><path class="cls-34" d="M107.82,362.72a3.11,3.11,0,0,1,1.66,0,7.1,7.1,0,0,1,1.06,2,3.93,3.93,0,0,0-1.44-1.51,3.72,3.72,0,0,0-1.29-.46Z"/><path class="cls-34" d="M157.82,371.87a1.84,1.84,0,0,0-1.89,1.73,3,3,0,0,1,.38-1.82,1.73,1.73,0,0,1,1.82.07Z"/><path class="cls-34" d="M173.77,371.87l.76.3,1.51,1.44Z"/><path class="cls-34" d="M155,374.05c-.07.07-.38.15-.68.3a4.06,4.06,0,0,1-.9.3,11.7,11.7,0,0,1-1.59.3c.61-.15,1.29-.38,2-.61a4.37,4.37,0,0,0,1.06-.38,5.93,5.93,0,0,1,1.06-.38A2.55,2.55,0,0,1,155,374.05Z"/><path class="cls-34" d="M107.59,363.85a3.39,3.39,0,0,0,.76,2l-.68-.68a2.56,2.56,0,0,1-.22-1.51,1.6,1.6,0,0,1,.38-1A3.35,3.35,0,0,0,107.59,363.85Z"/><path class="cls-34" d="M109.78,379.57a2.91,2.91,0,0,1-.83-1.29,1.06,1.06,0,0,1-.15-.46,1.29,1.29,0,0,1-.07-.53,2.2,2.2,0,0,0-.15-.68,7.18,7.18,0,0,0,1.21,2.95Z"/></g></g></g></svg>