<svg xmlns="http://www.w3.org/2000/svg" viewBox="0 0 68.86 79.51"><defs><style>.cls-1{fill:none;stroke:#e8e8e8;stroke-miterlimit:10;stroke-width:1.5px;}.cls-2{fill:#e8e8e8;}</style></defs><title>conceptdevelop</title><g id="Layer_2" data-name="Layer 2"><g id="Layer_1-2" data-name="Layer 1"><g id="Layer_2-2" data-name="Layer 2"><g id="Layer_1-2-2" data-name="Layer 1-2"><polygon class="cls-1" points="68.11 59.21 34.43 78.65 0.75 59.21 0.75 20.31 34.43 0.87 68.11 20.31 68.11 59.21"/></g></g><path class="cls-2" d="M40.88,31.77A9.27,9.27,0,0,0,34,29.2a9.38,9.38,0,0,0-8.89,8.95A9.25,9.25,0,0,0,27.75,45a7.32,7.32,0,0,1,2,5.16.58.58,0,0,0,.58.58h8.17a.58.58,0,0,0,.58-.59A7.54,7.54,0,0,1,41.19,45a9.33,9.33,0,0,0-.31-13.19Zm-7.61,9.09H31.81a1.46,1.46,0,1,1,1.46-1.46ZM35,49.61H33.85V41.44H35Zm5.33-5.46A8.71,8.71,0,0,0,38,49.61H35.6V41.44h1.46a2,2,0,1,0-2-2v1.46H33.85V39.4a2,2,0,1,0-2,2h1.46v8.17H30.92a8.42,8.42,0,0,0-2.33-5.39,8.09,8.09,0,0,1-2.31-6A8.21,8.21,0,0,1,34,30.37a8.16,8.16,0,0,1,6.3,13.79Zm-4.75-3.3V39.4a1.46,1.46,0,1,1,1.46,1.46Zm2.92,11.09a.58.58,0,0,1-.58.58h-7a.58.58,0,1,1,0-1.17h7A.58.58,0,0,1,38.52,51.94Zm0,1.75a.58.58,0,0,1-.58.58h-7a.58.58,0,0,1,0-1.17h7A.58.58,0,0,1,38.52,53.69Zm-1.17,1.75a.58.58,0,0,1-.58.58H32.1a.58.58,0,1,1,0-1.17h4.67A.58.58,0,0,1,37.35,55.44ZM26.68,46.28a.58.58,0,0,1,0,.82L23.76,50a.58.58,0,1,1-.82-.82l2.92-2.92A.58.58,0,0,1,26.68,46.28Zm-3.8-7.17H18.76a.58.58,0,0,1,0-1.17h4.13a.58.58,0,0,1,0,1.17Zm.05-11.26a.58.58,0,1,1,.82-.82l2.92,2.92a.58.58,0,0,1-.82.82ZM33.85,27v-4.2a.58.58,0,1,1,1.17,0V27a.58.58,0,1,1-1.17,0Zm8.34,3.8a.58.58,0,0,1,0-.82L45.11,27a.58.58,0,1,1,.82.82L43,30.77A.58.58,0,0,1,42.19,30.77Zm8.5,7.76a.58.58,0,0,1-.58.58H46a.58.58,0,0,1,0-1.17h4.13A.58.58,0,0,1,50.69,38.52ZM45.93,49.2a.58.58,0,1,1-.82.82l-2.92-2.92a.58.58,0,1,1,.82-.82Z"/></g></g></svg>