<svg xmlns="http://www.w3.org/2000/svg" viewBox="0 0 68.86 79.51"><defs><style>.cls-1{fill:none;stroke:#e8e8e8;stroke-miterlimit:10;stroke-width:1.5px;}.cls-2{fill:#e8e8e8;}</style></defs><title>web-develop</title><g id="Layer_2" data-name="Layer 2"><g id="Layer_1-2" data-name="Layer 1"><g id="Layer_2-2" data-name="Layer 2"><g id="Layer_1-2-2" data-name="Layer 1-2"><polygon class="cls-1" points="68.11 59.21 34.43 78.65 0.75 59.21 0.75 20.31 34.43 0.87 68.11 20.31 68.11 59.21"/><g id="Layer_2-2-2" data-name="Layer 2-2"><g id="Layer_1-2-2-2" data-name="Layer 1-2-2"><path class="cls-2" d="M37.15,34.16h-5a.62.62,0,0,1-.62-.62h0V28.59a.62.62,0,0,1,.62-.62h5a.62.62,0,0,1,.62.62h0v5A.62.62,0,0,1,37.15,34.16Zm-4.34-1.23h3.73V29.2H32.81Z"/><path class="cls-2" d="M24.13,30.49h7.44v1.24H24.13Z"/><path class="cls-2" d="M37.77,30.49h7.46v1.24H37.77Z"/><path class="cls-2" d="M45.85,32.93a1.86,1.86,0,1,1,1.86-1.86h0a1.86,1.86,0,0,1-1.86,1.86Zm0-2.48a.62.62,0,1,0,.62.62.62.62,0,0,0-.62-.62Z"/><path class="cls-2" d="M23.54,32.93a1.86,1.86,0,1,1,1.86-1.86h0a1.86,1.86,0,0,1-1.86,1.86Zm0-2.48a.62.62,0,1,0,.62.62h0A.62.62,0,0,0,23.54,30.44Z"/><path class="cls-2" d="M46.86,42.45a.62.62,0,0,1-.62-.62h0A10.3,10.3,0,0,0,37.69,31.6a.62.62,0,0,1,.2-1.11,11.54,11.54,0,0,1,9.56,11.4A.62.62,0,0,1,46.86,42.45Z"/><path class="cls-2" d="M22.48,42.45a.62.62,0,0,1-.62-.62h0a11.54,11.54,0,0,1,9.56-11.34.62.62,0,1,1,.21,1.11,10.3,10.3,0,0,0-8.54,10.22.62.62,0,0,1-.61.63Z"/><path class="cls-2" d="M38.7,50.67h-.16a.61.61,0,0,1-.46-.73h0L39.57,44l-4.95-7.5L29.75,44l1.49,5.88a.62.62,0,0,1-1.18.31l-1.55-6.12a.61.61,0,0,1,.08-.5L34.13,35a.64.64,0,0,1,1,0l5.54,8.53a.6.6,0,0,1,.08.5L39.27,50.2A.62.62,0,0,1,38.7,50.67Z"/><path class="cls-2" d="M34.63,47.19a.62.62,0,0,1-.62-.62h0V36.64a.62.62,0,0,1,1.24,0h0v9.92A.62.62,0,0,1,34.63,47.19Z"/><path class="cls-2" d="M34.63,49.59a1.86,1.86,0,1,1,1.86-1.86h0a1.86,1.86,0,0,1-1.86,1.86Zm0-2.48a.62.62,0,1,0,.62.62.62.62,0,0,0-.62-.62Z"/><path class="cls-2" d="M40.25,51.56H29.09a.62.62,0,0,1,0-1.24H40.24a.63.63,0,1,1,.17,1.24h-.16Z"/></g></g></g></g></g></g></svg>