<svg xmlns="http://www.w3.org/2000/svg" viewBox="0 0 68.87 79.52"><defs><style>.cls-1{fill:none;stroke:#e8e8e8;stroke-miterlimit:10;stroke-width:1.5px;}.cls-2{fill:#e8e8e8;}</style></defs><title>web-design</title><g id="Layer_2" data-name="Layer 2"><g id="Layer_1-2" data-name="Layer 1"><polygon class="cls-1" points="68.11 59.21 34.43 78.65 0.75 59.21 0.75 20.31 34.43 0.87 68.11 20.31 68.11 59.21"/><g id="Layer_2-2" data-name="Layer 2"><g id="Layer_1-2-2" data-name="Layer 1-2"><path class="cls-2" d="M32.73,46.53s.07.08.17.08H36c.11,0,.17-.06.17-.08a.19.19,0,0,1,.19-.19h9V33a.89.89,0,0,0-.89-.89H24.38a.89.89,0,0,0-.89.89V46.34h9A.19.19,0,0,1,32.73,46.53ZM24,33a.34.34,0,0,1,.34-.34H44.51a.34.34,0,0,1,.34.34v13H24Z"/><path class="cls-2" d="M46.6,47.42A2.51,2.51,0,0,0,48,47.08h0v-.54H36.35c0,.15-.17.27-.37.27H32.9c-.2,0-.37-.12-.37-.27H20.91v.54h0a2.51,2.51,0,0,0,1.36.34Z"/></g></g></g></g></svg>