<?xml version="1.0" encoding="utf-8"?>
<!-- Generator: Adobe Illustrator 21.0.0, SVG Export Plug-In . SVG Version: 6.00 Build 0)  -->
<svg version="1.1" id="Layer_1" xmlns="http://www.w3.org/2000/svg" xmlns:xlink="http://www.w3.org/1999/xlink" x="0px" y="0px"
	 viewBox="0 0 162 127" style="enable-background:new 0 0 162 127;" xml:space="preserve">
<style type="text/css">
	.st0{fill:#E8E8E8;}
	.st1{fill:none;stroke:#E8E8E8;stroke-miterlimit:10;}
</style>
<title>web-development</title>
<g id="Layer_2">
	<g id="Layer_1-2">
		<path class="st0" d="M86.8,49.7c-0.5,0-0.9,0.4-1.1,0.8l-6.1,17c-0.3,0.6,0,1.3,0.6,1.6c0.6,0.3,1.3,0,1.6-0.6
			c0-0.1,0.1-0.1,0.1-0.2l6.1-17c0.2-0.6-0.1-1.3-0.7-1.6C87.1,49.7,87,49.7,86.8,49.7z"/>
		<path class="st0" d="M76.5,52.7c-0.2,0-0.4,0.1-0.5,0.2l-9.7,5.5c-0.6,0.3-0.8,1.1-0.4,1.7c0.1,0.2,0.3,0.3,0.4,0.4l9.7,5.5
			c0.5,0.4,1.3,0.3,1.7-0.3s0.3-1.3-0.3-1.7c-0.1-0.1-0.2-0.1-0.2-0.1l-7.9-4.4l7.9-4.4c0.6-0.3,0.8-1.1,0.5-1.6
			C77.4,52.9,77,52.7,76.5,52.7z"/>
		<path class="st0" d="M91,52.7c-0.7,0-1.2,0.6-1.1,1.3c0,0.4,0.3,0.8,0.6,1l7.8,4.4l-7.8,4.4c-0.6,0.3-0.9,1-0.6,1.6s1,0.9,1.6,0.6
			c0.1,0,0.2-0.1,0.2-0.1l9.7-5.5c0.6-0.3,0.8-1.1,0.4-1.7c-0.1-0.2-0.3-0.3-0.4-0.4l-9.7-5.5C91.5,52.8,91.3,52.7,91,52.7z"/>
	</g>
</g>
<polygon class="st1" points="118.2,78.5 84.5,98 50.8,78.5 50.8,39.6 84.5,20.2 118.2,39.6 "/>
</svg>
