<svg xmlns="http://www.w3.org/2000/svg" viewBox="0 0 68.87 79.52"><defs><style>.cls-1{fill:none;stroke:#e8e8e8;stroke-miterlimit:10;stroke-width:1.5px;}.cls-2{fill:#e8e8e8;}</style></defs><title>web-develop</title><g id="Layer_2" data-name="Layer 2"><g id="Layer_1-2" data-name="Layer 1"><polygon class="cls-1" points="68.11 59.21 34.43 78.65 0.75 59.21 0.75 20.31 34.43 0.87 68.11 20.31 68.11 59.21"/><g id="Layer_2-2" data-name="Layer 2"><g id="Layer_1-2-2" data-name="Layer 1-2"><path class="cls-2" d="M37.33,35.31H32.86a.56.56,0,0,1-.56-.56V30.29a.56.56,0,0,1,.56-.56h4.47a.56.56,0,0,1,.56.56v4.47A.56.56,0,0,1,37.33,35.31ZM33.42,34.2h3.36V30.84H33.42Z"/><path class="cls-2" d="M25.59,32H32.3v1.12H25.59Z"/><path class="cls-2" d="M37.89,32h6.73v1.12H37.89Z"/><path class="cls-2" d="M45.18,34.2a1.68,1.68,0,1,1,1.68-1.68h0A1.68,1.68,0,0,1,45.18,34.2Zm0-2.24a.56.56,0,1,0,.56.56.56.56,0,0,0-.56-.56Z"/><path class="cls-2" d="M25.06,34.2a1.68,1.68,0,1,1,1.68-1.68h0A1.68,1.68,0,0,1,25.06,34.2Zm0-2.24a.56.56,0,1,0,.56.56.56.56,0,0,0-.56-.56Z"/><path class="cls-2" d="M46.09,42.79a.56.56,0,0,1-.56-.56h0A9.29,9.29,0,0,0,37.82,33,.56.56,0,0,1,38,32a10.41,10.41,0,0,1,8.62,10.28A.56.56,0,0,1,46.09,42.79Z"/><path class="cls-2" d="M24.1,42.79a.56.56,0,0,1-.56-.56A10.41,10.41,0,0,1,32.16,32,.56.56,0,1,1,32.35,33a9.29,9.29,0,0,0-7.7,9.22A.56.56,0,0,1,24.1,42.79Z"/><path class="cls-2" d="M38.73,50.2h-.14a.55.55,0,0,1-.41-.67h0l1.34-5.31-4.46-6.76-4.4,6.77L32,49.53a.56.56,0,0,1-1.06.28l-1.4-5.52a.55.55,0,0,1,.07-.45l5-7.74a.58.58,0,0,1,.93,0l5,7.69a.54.54,0,0,1,.07.45l-1.36,5.54A.56.56,0,0,1,38.73,50.2Z"/><path class="cls-2" d="M35.06,47.06a.56.56,0,0,1-.56-.56V37.55a.56.56,0,1,1,1.12,0V46.5A.56.56,0,0,1,35.06,47.06Z"/><path class="cls-2" d="M35.06,49.23a1.68,1.68,0,1,1,1.68-1.68h0A1.68,1.68,0,0,1,35.06,49.23Zm0-2.24a.56.56,0,1,0,.56.56.56.56,0,0,0-.56-.56Z"/><path class="cls-2" d="M40.13,51H30.06a.56.56,0,0,1,0-1.12H40.12A.56.56,0,1,1,40.27,51h-.14Z"/></g></g></g></g></svg>